<svg width="31" height="32" viewBox="0 0 31 32" fill="none" xmlns="http://www.w3.org/2000/svg">
<path d="M9.79201 13.7846L7.52661 16.105L13.7683 22.5018L16.0337 20.1814L9.79201 13.7846Z" fill="black"/>
<path d="M21.0842 10.2336L11.4412 20.1136L13.832 22.5631L23.4749 12.6832L21.0842 10.2336Z" fill="black"/>
<path d="M15.5 31.5897C14.9002 31.5897 14.2996 31.5536 13.7134 31.4831L14.0882 28.2232C14.5502 28.2798 15.0251 28.3077 15.5 28.3077V31.5897Z" fill="black"/>
<path d="M9.06925 26.3959L7.35547 29.1692C8.30846 29.7928 9.33353 30.3016 10.4066 30.6954L11.4798 27.6021C10.6389 27.2985 9.83005 26.8882 9.06925 26.3959Z" fill="black"/>
<path d="M6.97919 24.681L4.71283 26.9949C3.912 26.1662 3.19926 25.2554 2.59863 24.2708L5.31346 22.5313C5.78595 23.3026 6.34653 24.0246 6.97919 24.681Z" fill="black"/>
<path d="M4.1523 20.0533L1.13315 21.1364C0.756763 20.0369 0.500496 18.8964 0.380371 17.7477L3.55968 17.3785C3.66379 18.2892 3.864 19.1918 4.1523 20.0533Z" fill="#0C0C0C"/>
<path d="M4.1523 11.9549C3.85599 12.8164 3.65578 13.719 3.55968 14.6298L0.380371 14.2687C0.500496 13.1118 0.756763 11.9713 1.12515 10.88L4.1523 11.9549Z" fill="#0C0C0C"/>
<path d="M6.97113 7.32717C6.33847 7.98359 5.7859 8.70564 5.3054 9.48513L2.59058 7.74564C3.1912 6.76102 3.90394 5.84204 4.69677 5.02153L6.97113 7.32717Z" fill="#232322"/>
<path d="M11.4639 4.40615C10.623 4.70974 9.81417 5.11179 9.06139 5.6041L7.3396 2.83897C8.3006 2.21538 9.32567 1.69846 10.3908 1.31282L11.4639 4.40615Z" fill="#1D1D1D"/>
<path d="M14.0865 3.77682L13.7141 0.516922C14.3035 0.445538 14.9042 0.410255 15.5 0.410255V3.69231C15.0283 3.69231 14.5526 3.72103 14.0865 3.77682Z" fill="black"/>
<path d="M15.5 31.5897V28.3077C22.1237 28.3077 27.5125 22.7865 27.5125 16C27.5125 9.21354 22.1237 3.69231 15.5 3.69231V0.410255C23.8903 0.410255 30.7158 7.40348 30.7158 16C30.7158 24.5965 23.8903 31.5897 15.5 31.5897Z" fill="black"/>
</svg>
